<?xml version="1.0" encoding="UTF-8" standalone="no"?> <svg xmlns="http://www.w3.org/2000/svg" viewBox="0 0 64 64"><desc>washing</desc>
<metadata><?xpacket begin="﻿" id="W5M0MpCehiHzreSzNTczkc9d"?>
<x:xmpmeta xmlns:x="adobe:ns:meta/" x:xmptk="Adobe XMP Core 5.6-c148 79.164036, 2019/08/13-01:06:57        ">
   <rdf:RDF xmlns:rdf="http://www.w3.org/1999/02/22-rdf-syntax-ns#">
      <rdf:Description rdf:about=""
            xmlns:dc="http://purl.org/dc/elements/1.1/"
            xmlns:xmp="http://ns.adobe.com/xap/1.0/"
            xmlns:xmpMM="http://ns.adobe.com/xap/1.0/mm/"
            xmlns:stEvt="http://ns.adobe.com/xap/1.0/sType/ResourceEvent#">
         <dc:subject>
            <rdf:Bag>
               <rdf:li>home appliances</rdf:li>
               <rdf:li>electronic</rdf:li>
               <rdf:li>device</rdf:li>
            </rdf:Bag>
         </dc:subject>
         <dc:description>
            <rdf:Alt>
               <rdf:li xml:lang="x-default">washing</rdf:li>
            </rdf:Alt>
         </dc:description>
         <xmp:MetadataDate>2020-01-08T10:15:44+07:00</xmp:MetadataDate>
         <xmpMM:InstanceID>xmp.iid:986ecbb7-8c8a-49ee-9b16-e8a2504eeadf</xmpMM:InstanceID>
         <xmpMM:DocumentID>xmp.did:46ac24e6-aad7-424d-a65e-75c07cbb14fd</xmpMM:DocumentID>
         <xmpMM:OriginalDocumentID>xmp.did:46ac24e6-aad7-424d-a65e-75c07cbb14fd</xmpMM:OriginalDocumentID>
         <xmpMM:History>
            <rdf:Seq>
               <rdf:li>
                  <rdf:Description>
                     <stEvt:action>saved</stEvt:action>
                     <stEvt:instanceID>xmp.iid:46ac24e6-aad7-424d-a65e-75c07cbb14fd</stEvt:instanceID>
                     <stEvt:when>2019-12-13T13:11:59+07:00</stEvt:when>
                     <stEvt:softwareAgent>Adobe Bridge 2020 (Macintosh)</stEvt:softwareAgent>
                     <stEvt:changed>/metadata</stEvt:changed>
                  </rdf:Description>
               </rdf:li>
               <rdf:li>
                  <rdf:Description>
                     <stEvt:action>saved</stEvt:action>
                     <stEvt:instanceID>xmp.iid:986ecbb7-8c8a-49ee-9b16-e8a2504eeadf</stEvt:instanceID>
                     <stEvt:when>2020-01-08T10:15:44+07:00</stEvt:when>
                     <stEvt:softwareAgent>Adobe Bridge 2020 (Macintosh)</stEvt:softwareAgent>
                     <stEvt:changed>/metadata</stEvt:changed>
                  </rdf:Description>
               </rdf:li>
            </rdf:Seq>
         </xmpMM:History>
      </rdf:Description>
   </rdf:RDF>
</x:xmpmeta>
                                                                                                    
                                                                                                    
                                                                                                    
                                                                                                    
                                                                                                    
                                                                                                    
                                                                                                    
                                                                                                    
                                                                                                    
                                                                                                    
                                                                                                    
                                                                                                    
                                                                                                    
                                                                  
<?xpacket end="w"?></metadata>
<g id="washing-home_appliances" data-name="washing-home appliances"><path d="M24,21A16,16,0,1,0,40,37,16.019,16.019,0,0,0,24,21Zm0,2A14.012,14.012,0,0,1,37.938,35.778a16.124,16.124,0,0,1-2.434-.72A15.767,15.767,0,0,0,29.33,33.95a15.741,15.741,0,0,0-6.168,1.109,13.909,13.909,0,0,1-5.5.991,13.9,13.9,0,0,1-5.49-.989c-.6-.214-1.21-.432-1.925-.618A14.016,14.016,0,0,1,24,23Zm0,28A14.015,14.015,0,0,1,10,37c0-.183.02-.361.027-.542.512.146.985.311,1.467.485A15.763,15.763,0,0,0,17.66,38.05a15.759,15.759,0,0,0,6.179-1.11,13.873,13.873,0,0,1,5.491-.99,13.9,13.9,0,0,1,5.5.99,16.8,16.8,0,0,0,3.131.875A14.006,14.006,0,0,1,24,51Z"/><path d="M13,5H7A1,1,0,0,0,6,6v4a1,1,0,0,0,1,1h6a1,1,0,0,0,1-1V6A1,1,0,0,0,13,5ZM12,9H8V7h4Z"/><rect x="17" y="6" width="2" height="2"/><rect x="21" y="6" width="2" height="2"/><rect x="25" y="6" width="2" height="2"/><rect x="29" y="6" width="2" height="2"/><rect x="14" y="39" width="2" height="2"/><rect x="17" y="41" width="2" height="2"/><path d="M61,5H60V2H58V5H56V2H54V5H53a1,1,0,0,0-1,1v4a5.009,5.009,0,0,0,4,4.9V52a1,1,0,0,1-2,0V34a3,3,0,0,0-6,0V52a1,1,0,0,1-1,1H46V3a1,1,0,0,0-1-1H3A1,1,0,0,0,2,3V58a1,1,0,0,0,1,1H7v2a1,1,0,0,0,1,1h4a1,1,0,0,0,1-1V59H35v2a1,1,0,0,0,1,1h4a1,1,0,0,0,1-1V59h4a1,1,0,0,0,1-1V55h1a3,3,0,0,0,3-3V34a1,1,0,0,1,2,0V52a3,3,0,0,0,6,0V14.9A5.009,5.009,0,0,0,62,10V6A1,1,0,0,0,61,5ZM4,4H44v8H4Zm7,56H9V59h2Zm28,0H37V59h2ZM4,57V14H44V57ZM60,10a3,3,0,0,1-6,0V7h6Z"/><rect x="55" y="8" width="4" height="2"/><rect x="41" y="35" width="2" height="4"/></g></svg>