<?xml version="1.0" encoding="iso-8859-1"?>
<!-- Generator: Adobe Illustrator 19.0.0, SVG Export Plug-In . SVG Version: 6.00 Build 0)  -->
<svg version="1.1" id="Layer_1" xmlns="http://www.w3.org/2000/svg" xmlns:xlink="http://www.w3.org/1999/xlink" x="0px" y="0px"
	 viewBox="0 0 455 455" style="enable-background:new 0 0 455 455;" xml:space="preserve">
<g id="XMLID_114_">
	<g>
		<g>
			<rect x="177.5" width="30" height="90"/>
			<rect x="97.5" y="30" width="30" height="60"/>
			<rect x="257.5" y="30" width="30" height="60"/>
			<path d="M359.695,178.258C370.422,171.075,377.5,158.85,377.5,145c0-22.056-17.944-40-40-40h-290c-22.056,0-40,17.944-40,40
				c0,18.604,12.767,34.282,30,38.734V410c0,24.814,20.187,45,45,45h220c24.814,0,45-20.186,45-45v-5.978
				c56.35-7.374,100-55.694,100-114.022C447.5,235.956,410.023,190.508,359.695,178.258z M317.5,410c0,8.272-6.728,15-15,15h-220
				c-8.271,0-15-6.728-15-15V185h250V410z M337.5,155h-290c-5.514,0-10-4.486-10-10c0-5.514,4.486-10,10-10h290
				c5.514,0,10,4.486,10,10C347.5,150.514,343.014,155,337.5,155z M347.5,270.014c6.068,4.565,10,11.824,10,19.986
				s-3.932,15.421-10,19.986V270.014z M347.5,373.647v-30.743c23.057-6.548,40-27.777,40-52.904c0-25.127-16.943-46.356-40-52.904
				v-30.743c39.736,7.108,70,41.9,70,83.648S387.236,366.539,347.5,373.647z"/>
		</g>
	</g>
</g>
<g>
</g>
<g>
</g>
<g>
</g>
<g>
</g>
<g>
</g>
<g>
</g>
<g>
</g>
<g>
</g>
<g>
</g>
<g>
</g>
<g>
</g>
<g>
</g>
<g>
</g>
<g>
</g>
<g>
</g>
</svg>
