<?xml version="1.0" encoding="UTF-8" standalone="no"?> <svg id="solid" xmlns="http://www.w3.org/2000/svg" viewBox="0 0 64 64"><rect x="4" y="58" width="22" height="2"/><path d="M4.178,56H25.822L22.165,33.737a9.9,9.9,0,0,1-.078-2.28l.8-7.457H7.113l.8,7.432a9.928,9.928,0,0,1-.072,2.291Z"/><polygon points="29 41 29.479 41 35.079 33 29 33 29 41"/><polygon points="43 33 42.521 33 36.921 41 43 41 43 33"/><polygon points="40.079 33 37.521 33 31.921 41 34.479 41 40.079 33"/><polygon points="57.043 20 54.957 20 54.044 41 57.956 41 57.043 20"/><path d="M9,16a1,1,0,0,1,1,1v5H20V19a4,4,0,0,1,4-4,1,1,0,0,1,1,1,2,2,0,0,0,2,2,1.979,1.979,0,0,0,1.614-.832.983.983,0,0,1,.895-.408,1,1,0,0,1,.811.555,2.974,2.974,0,0,0,5.493-.322,1,1,0,0,1,1.755-.251,2.981,2.981,0,0,0,5.323-.993A1,1,0,0,1,43.858,15H44a1,1,0,0,1,1,1,1,1,0,0,0,2,0,1,1,0,0,1,1-1,1,1,0,0,0,0-2,.99.99,0,0,0-.54.162,1,1,0,0,1-1.518-.6A2.148,2.148,0,0,0,43.83,11H42.9a1,1,0,0,1-.979-.8A4.011,4.011,0,0,0,38,7a3.944,3.944,0,0,0-2.607,1,1,1,0,0,1-1.613-.462A4.972,4.972,0,0,0,29,4a5.022,5.022,0,0,0-4.938,4.262,1,1,0,0,1-1.8.432,3.981,3.981,0,0,0-7.237,2.142,1,1,0,0,1-1.675.7A1.979,1.979,0,0,0,12.1,11a2.126,2.126,0,0,0-2.084,2.06A.987.987,0,0,1,8.968,14,1,1,0,0,0,9,16Z"/><rect x="41" y="47" width="4" height="2"/><path d="M26,43v1.746L27.356,53H60V43Zm11,7a1,1,0,0,1-1,1H30a1,1,0,0,1-1-1V46a1,1,0,0,1,1-1h6a1,1,0,0,1,1,1Zm10,0a1,1,0,0,1-1,1H40a1,1,0,0,1-1-1V46a1,1,0,0,1,1-1h6a1,1,0,0,1,1,1Zm10,0a1,1,0,0,1-1,1H50a1,1,0,0,1-1-1V46a1,1,0,0,1,1-1h6a1,1,0,0,1,1,1Z"/><rect x="51" y="47" width="4" height="2"/><path d="M27.986,56.838c0,.025.014.131.014.162v3H60V55H27.684Z"/><rect x="31" y="47" width="4" height="2"/></svg>
