<?xml version="1.0" ?><svg fill="none" height="28" viewBox="0 0 28 28" width="28" xmlns="http://www.w3.org/2000/svg"><path clip-rule="evenodd" d="M1 6.79308C1 3.59374 3.59335 1 6.79262 1C7.41739 1 8.02094 1.09928 8.58725 1.28367C9.31146 1.51948 9.7368 2.14815 9.84598 2.77482M9.84598 2.77482L10.5163 6.62056L10.8303 8.42048L11.0012 9.6232C11.0895 10.2419 10.8887 10.9564 10.295 11.4077C9.67945 11.8755 8.96643 12.2236 8.19115 12.416C8.90065 14.0582 9.91481 15.552 11.1806 16.8179C12.4471 18.0845 13.9416 19.0992 15.5847 19.8088C15.7769 19.0338 16.1247 18.321 16.5921 17.7056C17.0433 17.1115 17.7581 16.9105 18.377 16.9989L19.5781 17.1704L21.3765 17.4836L25.2253 18.1542C25.8521 18.2634 26.481 18.689 26.7167 19.4135C26.9008 19.9795 26.9999 20.5826 26.9999 21.2069C26.9999 24.4063 24.4066 27 21.2073 27C20.9504 27 20.6969 26.9832 20.448 26.9506C19.2876 26.907 18.135 26.7633 17.0028 26.5221C15.8025 26.2665 14.6252 25.9012 13.486 25.4292C11.0388 24.4155 8.81525 22.9296 6.94225 21.0564C5.06925 19.1832 3.58352 16.9594 2.56986 14.512C2.09799 13.3727 1.73272 12.1953 1.47706 10.995C1.23564 9.86147 1.09196 8.70747 1.04855 7.5457C1.01648 7.29893 1 7.04769 1 6.79308M21.0333 19.4539L19.2502 19.1434L18.1335 18.9844C17.8423 19.3863 17.6286 19.8467 17.513 20.3441C17.3943 20.855 17.0793 21.3016 16.6509 21.5786C16.2101 21.8635 15.6103 21.9859 15.0144 21.739C13.0518 20.926 11.2685 19.7343 9.76633 18.232C8.26419 16.7298 7.07264 14.9463 6.2597 12.9835C6.01321 12.3884 6.13542 11.7893 6.42002 11.3491C6.69664 10.9212 7.14275 10.6066 7.65323 10.4883C8.15165 10.3728 8.61299 10.1586 9.01567 9.86667L8.85065 8.71013L8.54604 6.96432L7.88274 3.15875C7.5386 3.05568 7.17295 3 6.79262 3C4.6981 3 3 4.69813 3 6.79308C3 6.97337 3.01251 7.15017 3.03656 7.32279L3.04372 7.37415L3.04553 7.42597C3.08256 8.48778 3.21258 9.54256 3.43319 10.5784C3.6635 11.6597 3.99256 12.7204 4.41765 13.7467C5.33081 15.9515 6.66924 17.9548 8.35653 19.6423C10.0438 21.3297 12.0469 22.6683 14.2515 23.5815C15.2777 24.0066 16.3382 24.3357 17.4195 24.566C18.4542 24.7865 19.5079 24.9165 20.5686 24.9536L20.621 24.9555L20.6729 24.9628C20.847 24.9873 21.0254 25 21.2073 25C23.3018 25 24.9999 23.3019 24.9999 21.2069C24.9999 20.8268 24.9443 20.4614 24.8414 20.1175L21.0333 19.4539Z" fill="black" fill-rule="evenodd"/></svg>