<?xml version="1.0" encoding="UTF-8" standalone="no"?> <svg xmlns="http://www.w3.org/2000/svg" viewBox="0 0 32 32"><title>Clothes Shop</title><g id="Boutique"><path d="M27.764,10.764,22.87,8.316h0A3.014,3.014,0,0,0,21.528,8H17.049V7.14a2.668,2.668,0,0,0,.886-4.359,2.731,2.731,0,0,0-3.772,0A1,1,0,0,0,15.577,4.2a.667.667,0,0,1,.944.943.663.663,0,0,1-.472.2,1,1,0,0,0-1,1V8H10.472a3.022,3.022,0,0,0-1.342.316L4.236,10.764a2.005,2.005,0,0,0-1.067,2.181l.69,3.447A2,2,0,0,0,5.82,18H8V28a2,2,0,0,0,2,2H22a2,2,0,0,0,2-2V18h2.18a2,2,0,0,0,1.961-1.607l.69-3.448A2.005,2.005,0,0,0,27.764,10.764ZM18.218,10a2.96,2.96,0,0,1-4.436,0Zm7.962,6H23a1,1,0,0,0-1,1V28H10V17a1,1,0,0,0-1-1H5.82l-.69-3.447,4.894-2.448A1.027,1.027,0,0,1,10.472,10h.96a4.978,4.978,0,0,0,9.136,0h.96a1.027,1.027,0,0,1,.448.105l4.894,2.448Z"/></g></svg>