<?xml version="1.0" encoding="iso-8859-1"?>
<!-- Generator: Adobe Illustrator 19.0.0, SVG Export Plug-In . SVG Version: 6.00 Build 0)  -->
<svg version="1.1" id="Capa_1" xmlns="http://www.w3.org/2000/svg" xmlns:xlink="http://www.w3.org/1999/xlink" x="0px" y="0px"
	 viewBox="0 0 489.9 489.9" style="enable-background:new 0 0 489.9 489.9;" xml:space="preserve">
<g>
	<g>
		<g>
			<path d="M469.327,0h-143.9c-11.2,0-20.4,9.2-20.4,20.4s9.2,20.4,20.4,20.4h4.1v373.6c0,41.9,30.6,75.5,67.4,75.5
				c37.8,0,67.4-33.7,67.4-75.5V40.8h5.1c11.2,0,20.4-9.2,20.4-20.4C489.727,9.2,480.527,0,469.327,0z M423.427,414.5
				c0,19.4-12.3,34.7-26.5,34.7s-26.5-16.3-26.5-34.7V40.8h53.1v373.7H423.427z"/>
			<path d="M212.127,226.6V40.8h6.1c11.2,0,20.4-9.2,20.4-20.4s-9.2-20.4-20.4-20.4h-121.5c-11.2,0-20.4,9.2-20.4,20.4
				s9.2,20.4,20.4,20.4h8.2v183.8l-100,201.1c-14.3,28.1,4.8,61.3,33.7,61.3h237.9c32.7,0,47.7-33.6,34.7-60.2L212.127,226.6z
				 M274.527,446.1h-233.9l102.1-206.2c1-3.1,2-6.1,2-9.2V40.8h25.5v189.9c0,3.1,1,6.1,2,9.2L274.527,446.1z"/>
		</g>
	</g>
</g>
<g>
</g>
<g>
</g>
<g>
</g>
<g>
</g>
<g>
</g>
<g>
</g>
<g>
</g>
<g>
</g>
<g>
</g>
<g>
</g>
<g>
</g>
<g>
</g>
<g>
</g>
<g>
</g>
<g>
</g>
</svg>
