<?xml version="1.0" encoding="UTF-8" standalone="no"?> <svg xmlns="http://www.w3.org/2000/svg" xmlns:xlink="http://www.w3.org/1999/xlink" viewBox="0 0 64 64"><defs><style>.cls-1{fill:url(#linear-gradient);}.cls-2{fill:url(#linear-gradient-2);}</style><linearGradient id="linear-gradient" x1="10.5" y1="31.98" x2="53.54" y2="31.98" gradientUnits="userSpaceOnUse"><stop offset="0" stop-color="#19dd33"/><stop offset="0.43" stop-color="#0fa922"/><stop offset="0.8" stop-color="#088215"/><stop offset="1" stop-color="#057310"/></linearGradient><linearGradient id="linear-gradient-2" x1="24.93" y1="23.5" x2="53.5" y2="23.5" xlink:href="#linear-gradient"/></defs><g id="Layer_39" data-name="Layer 39"><path class="cls-1" d="M51.68,23.35a1.5,1.5,0,0,0-2.74,1.22C54.42,36.38,45.06,50.78,32,50.5A18.52,18.52,0,0,1,13.5,32C13.22,18.94,27.62,9.58,39.43,15.06a1.51,1.51,0,0,0,2-.76,1.49,1.49,0,0,0-.76-2C26.92,5.94,10.18,16.81,10.5,32A21.53,21.53,0,0,0,32,53.5C47.18,53.82,58.06,37.08,51.68,23.35Z"/><path class="cls-2" d="M27.74,24.39a1.5,1.5,0,0,0-2.61,1.47l5.56,9.88a1.51,1.51,0,0,0,2.44.24l20-23a1.5,1.5,0,1,0-2.26-2L32.26,32.41Z"/></g></svg>