<?xml version="1.0" encoding="UTF-8" standalone="no"?> <svg width="64" height="64" viewBox="0 0 64 64" fill="none" xmlns="http://www.w3.org/2000/svg">
<path d="M32 2.75C26.2149 2.75 20.5597 4.46548 15.7496 7.67951C10.9394 10.8935 7.1904 15.4618 4.97654 20.8065C2.76267 26.1512 2.18343 32.0324 3.31204 37.7064C4.44066 43.3803 7.22645 48.5922 11.3171 52.6829C15.4078 56.7736 20.6197 59.5594 26.2936 60.688C31.9676 61.8166 37.8488 61.2373 43.1935 59.0235C48.5382 56.8096 53.1065 53.0606 56.3205 48.2504C59.5345 43.4403 61.25 37.7851 61.25 32C61.2421 24.2449 58.1578 16.8096 52.6741 11.3259C47.1904 5.84218 39.7552 2.75794 32 2.75V2.75ZM32 58.75C26.7094 58.75 21.5375 57.1811 17.1385 54.2418C12.7395 51.3025 9.31088 47.1247 7.28624 42.2368C5.26159 37.3489 4.73185 31.9703 5.76401 26.7813C6.79616 21.5923 9.34385 16.8259 13.0849 13.0849C16.826 9.34384 21.5924 6.79615 26.7813 5.76399C31.9703 4.73184 37.3489 5.26158 42.2368 7.28622C47.1247 9.31087 51.3025 12.7395 54.2418 17.1385C57.1812 21.5375 58.75 26.7093 58.75 32C58.7421 39.0921 55.9212 45.8915 50.9063 50.9063C45.8915 55.9212 39.0921 58.7421 32 58.75V58.75Z" fill="black"/>
<path d="M50.81 34.8999L35 19.0899C34.6062 18.6956 34.1386 18.3829 33.6238 18.1694C33.1091 17.956 32.5573 17.8462 32 17.8462C31.4428 17.8462 30.891 17.956 30.3762 18.1694C29.8615 18.3829 29.3938 18.6956 29 19.0899L13.19 34.8999C12.7957 35.2937 12.483 35.7614 12.2695 36.2761C12.0561 36.7909 11.9463 37.3427 11.9463 37.8999C11.9463 38.4572 12.0561 39.009 12.2695 39.5237C12.483 40.0385 12.7957 40.5061 13.19 40.8999C13.9866 41.6938 15.0654 42.1395 16.19 42.1395C17.3146 42.1395 18.3934 41.6938 19.19 40.8999L30.76 29.3399C31.0897 29.0126 31.5354 28.8289 32 28.8289C32.4646 28.8289 32.9103 29.0126 33.24 29.3399L44.8 40.9099C45.5979 41.7014 46.6762 42.1454 47.8 42.1454C48.9238 42.1454 50.0021 41.7014 50.8 40.9099C51.1943 40.5161 51.5071 40.0485 51.7205 39.5337C51.9339 39.019 52.0438 38.4672 52.0438 37.9099C52.0438 37.3527 51.9339 36.8009 51.7205 36.2861C51.5071 35.7714 51.1943 35.3037 50.8 34.9099L50.81 34.8999Z" fill="black"/>
</svg>
