<?xml version="1.0" encoding="UTF-8" standalone="no"?> <svg width="64" height="64" viewBox="0 0 64 64" fill="none" xmlns="http://www.w3.org/2000/svg">
<path d="M35 19C32.879 19.0024 30.8456 19.846 29.3458 21.3458C27.846 22.8456 27.0024 24.879 27 27C27 31.038 33.421 41.368 34.153 42.532C34.243 42.6754 34.3679 42.7936 34.5161 42.8755C34.6642 42.9574 34.8307 43.0004 35 43.0004C35.1693 43.0004 35.3358 42.9574 35.4839 42.8755C35.6321 42.7936 35.757 42.6754 35.847 42.532C36.579 41.368 43 31.038 43 27C42.9976 24.879 42.154 22.8456 40.6542 21.3458C39.1544 19.846 37.121 19.0024 35 19V19ZM35 40.087C32.777 36.387 29 29.566 29 27C29 25.4087 29.6321 23.8826 30.7574 22.7574C31.8826 21.6321 33.4087 21 35 21C36.5913 21 38.1174 21.6321 39.2426 22.7574C40.3679 23.8826 41 25.4087 41 27C41 29.564 37.223 36.388 35 40.087Z" fill="black"/>
<path d="M35 23C34.2089 23 33.4355 23.2346 32.7777 23.6741C32.1199 24.1136 31.6072 24.7384 31.3045 25.4693C31.0017 26.2002 30.9225 27.0044 31.0769 27.7804C31.2312 28.5563 31.6122 29.269 32.1716 29.8284C32.731 30.3878 33.4437 30.7688 34.2196 30.9231C34.9956 31.0775 35.7998 30.9983 36.5307 30.6955C37.2616 30.3928 37.8864 29.8801 38.3259 29.2223C38.7654 28.5645 39 27.7911 39 27C39 25.9391 38.5786 24.9217 37.8284 24.1716C37.0783 23.4214 36.0609 23 35 23ZM35 29C34.6044 29 34.2178 28.8827 33.8889 28.6629C33.56 28.4432 33.3036 28.1308 33.1522 27.7654C33.0009 27.3999 32.9613 26.9978 33.0384 26.6098C33.1156 26.2219 33.3061 25.8655 33.5858 25.5858C33.8655 25.3061 34.2219 25.1156 34.6098 25.0384C34.9978 24.9613 35.3999 25.0009 35.7654 25.1522C36.1308 25.3036 36.4432 25.56 36.6629 25.8889C36.8827 26.2178 37 26.6044 37 27C37 27.5304 36.7893 28.0391 36.4142 28.4142C36.0391 28.7893 35.5304 29 35 29Z" fill="black"/>
<path d="M14 29.286C12.4093 29.2879 10.8842 29.9206 9.75941 31.0454C8.63459 32.1702 8.00185 33.6953 8 35.286C8 38.25 12.626 45.693 13.153 46.532C13.243 46.6754 13.3679 46.7936 13.5161 46.8755C13.6642 46.9574 13.8307 47.0004 14 47.0004C14.1693 47.0004 14.3358 46.9574 14.4839 46.8755C14.6321 46.7936 14.757 46.6754 14.847 46.532C15.374 45.693 20 38.25 20 35.286C19.9981 33.6953 19.3654 32.1702 18.2406 31.0454C17.1158 29.9206 15.5907 29.2879 14 29.286V29.286ZM14 44.079C12.194 41.035 10 36.832 10 35.286C10 34.2251 10.4214 33.2077 11.1716 32.4576C11.9217 31.7074 12.9391 31.286 14 31.286C15.0609 31.286 16.0783 31.7074 16.8284 32.4576C17.5786 33.2077 18 34.2251 18 35.286C18 36.832 15.806 41.035 14 44.079Z" fill="black"/>
<path d="M54.0561 11.689C54.5685 10.619 54.888 9.46704 55.0001 8.28601C55.0017 7.03379 54.6111 5.81252 53.883 4.79372C53.1549 3.77492 52.126 3.00978 50.9407 2.60576C49.7555 2.20174 48.4734 2.17913 47.2747 2.54112C46.0759 2.90311 45.0206 3.63151 44.2571 4.62401C40.4053 2.88529 36.2261 1.99061 32.0001 2.00001C25.1014 1.99079 18.4098 4.35629 13.0496 8.69905C7.68936 13.0418 3.98718 19.0972 2.56512 25.8477C1.14306 32.5982 2.08777 39.6324 5.24052 45.7685C8.39328 51.9046 13.5619 56.7686 19.878 59.5432C26.1941 62.3178 33.2728 62.834 39.9245 61.0049C46.5763 59.1759 52.3959 55.1131 56.4054 49.4992C60.4149 43.8853 62.37 37.0625 61.9421 30.1771C61.5143 23.2917 58.7297 16.7634 54.0561 11.689V11.689ZM49.0001 4.28601C50.061 4.28601 51.0784 4.70744 51.8285 5.45759C52.5787 6.20773 53.0001 7.22515 53.0001 8.28601C53.0001 9.83201 50.8061 14.035 49.0001 17.079C47.1941 14.035 45.0001 9.83201 45.0001 8.28601C45.0001 7.76073 45.1036 7.24058 45.3046 6.75528C45.5056 6.26998 45.8002 5.82902 46.1717 5.45759C46.9218 4.70744 47.9392 4.28601 49.0001 4.28601V4.28601ZM21.0501 6.23201L24.2351 6.86701L24.6721 8.18001L18.8581 9.01001C18.6862 9.03465 18.5237 9.10363 18.3866 9.21015C18.2494 9.31667 18.1424 9.45706 18.076 9.61751C18.0096 9.77795 17.9861 9.95292 18.0079 10.1252C18.0297 10.2975 18.0959 10.4611 18.2001 10.6L20.8531 14.138L18.2531 20.214L12.5101 22.367L13.9651 17.274C14.0183 17.0875 14.016 16.8896 13.9587 16.7043C13.9014 16.519 13.7914 16.3544 13.6422 16.2305C13.493 16.1066 13.311 16.0288 13.1183 16.0065C12.9256 15.9842 12.7307 16.0185 12.5571 16.105L8.55711 18.105C8.43303 18.1672 8.32325 18.2545 8.23476 18.3614C8.14627 18.4683 8.081 18.5925 8.04311 18.726L6.04311 25.726C6.0323 25.7621 6.02394 25.7988 6.01811 25.836L5.5601 28.558L4.5741 26.347C5.49693 21.9149 7.47693 17.7714 10.3456 14.2692C13.2142 10.767 16.8866 8.00967 21.0501 6.23201V6.23201ZM4.0001 32C4.0001 31.37 4.0291 30.746 4.0701 30.126L5.0871 32.407C5.16574 32.5835 5.29381 32.7334 5.45584 32.8386C5.61786 32.9439 5.8069 32.9999 6.0001 33C6.04256 32.9998 6.08496 32.9971 6.1271 32.992C6.34025 32.9646 6.53889 32.8693 6.69361 32.7201C6.84833 32.571 6.9509 32.376 6.9861 32.164L7.97711 26.221L9.8411 19.7L11.4141 18.914L10.0391 23.729C9.98832 23.907 9.98792 24.0955 10.038 24.2737C10.088 24.4519 10.1865 24.6127 10.3225 24.7382C10.4585 24.8638 10.6266 24.9491 10.8082 24.9847C10.9898 25.0203 11.1778 25.0049 11.3511 24.94L19.3511 21.94C19.4775 21.8925 19.5931 21.82 19.6907 21.7266C19.7883 21.6333 19.866 21.5212 19.9191 21.397L22.9191 14.397C22.9889 14.2351 23.0147 14.0576 22.9938 13.8825C22.9729 13.7074 22.9061 13.5409 22.8001 13.4L20.8131 10.751L26.1421 9.99001C26.2871 9.96926 26.4257 9.91692 26.5482 9.8367C26.6707 9.75648 26.7741 9.65034 26.8511 9.52577C26.928 9.4012 26.9767 9.26124 26.9937 9.11579C27.0106 8.97034 26.9954 8.82294 26.9491 8.68401L25.9491 5.68401C25.8936 5.51728 25.7952 5.36812 25.6637 5.25156C25.5322 5.13499 25.3723 5.05512 25.2001 5.02001L24.8101 4.94201C27.1556 4.31667 29.5727 3.99999 32.0001 4.00001C32.2431 4.00001 32.4831 4.01401 32.7241 4.02001L28.5531 6.10501C28.4116 6.17593 28.289 6.2794 28.1954 6.40692C28.1017 6.53445 28.0396 6.68238 28.0142 6.83857C27.9888 6.99475 28.0009 7.15474 28.0494 7.30536C28.0978 7.45599 28.1814 7.59296 28.2931 7.70501L33.0001 12.414V16.323L23.6281 20.071C23.4738 20.133 23.3374 20.2325 23.2312 20.3605C23.1251 20.4885 23.0525 20.6409 23.0201 20.804L21.0201 30.804C20.9883 30.9649 20.9966 31.1312 21.0442 31.2881C21.0918 31.4451 21.1773 31.5879 21.2931 31.704L27.6471 38.059L23.2901 43.29L17.3601 48.231C17.1739 48.3858 17.0502 48.6029 17.012 48.842C16.9737 49.081 17.0235 49.3259 17.1521 49.531L22.1521 57.531C22.2143 57.6304 22.2935 57.7181 22.3861 57.79L23.5471 58.69C17.8804 56.8877 12.9331 53.3311 9.41966 48.5337C5.90618 43.7363 4.00831 37.9464 4.0001 32V32ZM28.1301 59.726L23.7541 56.319L19.3111 49.21L24.6401 44.769C24.6862 44.7299 24.729 44.6871 24.7681 44.641L29.7681 38.641C29.9281 38.4493 30.0105 38.2046 29.9992 37.9552C29.9879 37.7057 29.8837 37.4695 29.7071 37.293L23.0851 30.671L24.8751 21.728L34.3751 17.928C34.5599 17.8533 34.7182 17.725 34.8295 17.5596C34.9409 17.3942 35.0003 17.1994 35.0001 17V12C35 11.7348 34.8947 11.4805 34.7071 11.293L30.6881 7.27401L36.5121 4.36301C38.8571 4.74141 41.1429 5.42312 43.3121 6.39101C43.106 7.00158 43.0007 7.64161 43.0001 8.28601C43.0001 11.25 47.6261 18.693 48.1531 19.532C48.2431 19.6754 48.368 19.7936 48.5162 19.8755C48.6643 19.9574 48.8308 20.0004 49.0001 20.0004C49.1694 20.0004 49.3359 19.9574 49.484 19.8755C49.6322 19.7936 49.7571 19.6754 49.8471 19.532C50.1471 19.051 51.7981 16.398 53.1471 13.663C55.6788 16.5679 57.5781 19.968 58.7241 23.647L56.3901 32.394L54.5511 31.168C54.4005 31.0686 54.2259 31.0118 54.0457 31.0036C53.8655 30.9953 53.6864 31.036 53.5274 31.1213C53.3684 31.2066 53.2355 31.3333 53.1426 31.488C53.0498 31.6427 53.0006 31.8196 53.0001 32V39.719L46.2431 38.03C46.1097 37.9967 45.9708 37.9912 45.8351 38.014L39.8351 39.014C39.6447 39.0459 39.4675 39.1321 39.3251 39.2625C39.1826 39.3928 39.0809 39.5615 39.0323 39.7484C38.9836 39.9352 38.9901 40.1322 39.051 40.3154C39.1118 40.4986 39.2244 40.6604 39.3751 40.781L44.3751 44.781C44.4954 44.8773 44.6364 44.9444 44.787 44.9772C44.9375 45.01 45.0936 45.0075 45.2431 44.97L48.3961 44.182L49.8471 47.809L44.2411 54.35C44.1485 54.458 44.08 54.5845 44.0401 54.7211C44.0003 54.8577 43.9901 55.0012 44.0101 55.142L44.2981 57.148C39.2892 59.609 33.656 60.5072 28.1301 59.726V59.726ZM46.1731 56.134L46.0541 55.307L51.7541 48.65C51.8729 48.5115 51.9515 48.3432 51.9815 48.1632C52.0114 47.9832 51.9916 47.7985 51.9241 47.629L49.9241 42.629C49.8345 42.4041 49.6663 42.2193 49.4508 42.1089C49.2352 41.9986 48.987 41.9702 48.7521 42.029L45.2331 42.909L42.3691 40.617L45.9541 40.017L53.7541 41.966C53.9015 42.0041 54.0556 42.0075 54.2045 41.9759C54.3534 41.9443 54.4929 41.8786 54.6121 41.784C54.732 41.6913 54.8292 41.5725 54.8964 41.4367C54.9636 41.3009 54.9991 41.1515 55.0001 41V33.868L56.4451 34.832C56.5773 34.9202 56.7286 34.9756 56.8865 34.9936C57.0444 35.0116 57.2043 34.9918 57.353 34.9356C57.5017 34.8795 57.6349 34.7888 57.7415 34.671C57.8481 34.5531 57.9251 34.4116 57.9661 34.258L59.6861 27.813C60.5216 33.3435 59.6808 38.9974 57.2722 44.0455C54.8635 49.0936 50.9976 53.3041 46.1731 56.134V56.134Z" fill="black"/>
</svg>
