<?xml version="1.0" encoding="utf-8"?><svg viewBox="0 0 502.66 502.66" xmlns="http://www.w3.org/2000/svg" xmlns:xlink="http://www.w3.org/1999/xlink"><style>:root>svg{display:none}:root>svg:target{display:block}</style><svg viewBox="0 0 502.664 502.664" id="icon" xmlns="http://www.w3.org/2000/svg"><path d="M153.821 358.226L0 274.337v-46.463l153.821-83.414v54.574L46.636 250.523l107.185 53.431v54.272zm26.273 29.358L282.103 115.08h32.227L212.084 387.584h-31.99zm168.749-29.358v-54.272l107.164-52.999-107.164-52.59v-53.927l153.821 83.522v46.183l-153.821 84.083z"/></svg><svg viewBox="0 0 64 64" id="ok" xmlns="http://www.w3.org/2000/svg"><defs><linearGradient id="ba" x1="10.5" y1="31.98" x2="53.54" y2="31.98" gradientUnits="userSpaceOnUse"><stop offset="0" stop-color="#19dd33"/><stop offset=".43" stop-color="#0fa922"/><stop offset=".8" stop-color="#088215"/><stop offset="1" stop-color="#057310"/></linearGradient></defs><g data-name="Layer 39"><path d="M51.68 23.35a1.5 1.5 0 00-2.74 1.22C54.42 36.38 45.06 50.78 32 50.5A18.52 18.52 0 0113.5 32c-.28-13.06 14.12-22.42 25.93-16.94a1.51 1.51 0 002-.76 1.49 1.49 0 00-.76-2C26.92 5.94 10.18 16.81 10.5 32A21.53 21.53 0 0032 53.5c15.18.32 26.06-16.42 19.68-30.15z"/><path d="M27.74 24.39a1.5 1.5 0 00-2.61 1.47l5.56 9.88a1.51 1.51 0 002.44.24l20-23a1.5 1.5 0 10-2.26-2L32.26 32.41z"/></g></svg></svg>