<?xml version="1.0" encoding="utf-8"?><svg viewBox="0 0 502.66 502.66" xmlns="http://www.w3.org/2000/svg" xmlns:xlink="http://www.w3.org/1999/xlink"><style>:root>svg{display:none}:root>svg:target{display:block}</style><svg viewBox="0 0 502.664 502.664" id="icon" xmlns="http://www.w3.org/2000/svg"><path d="M153.821 358.226L0 274.337v-46.463l153.821-83.414v54.574L46.636 250.523l107.185 53.431v54.272zm26.273 29.358L282.103 115.08h32.227L212.084 387.584h-31.99zm168.749-29.358v-54.272l107.164-52.999-107.164-52.59v-53.927l153.821 83.522v46.183l-153.821 84.083z"/></svg><svg viewBox="0 0 50 50" id="letter" xmlns="http://www.w3.org/2000/svg"><path d="M6 1v48h38V8.586L36.414 1H6zm31 3.414L40.586 8H37V4.414zM8 47V3h27v7h7v37H8z"/><path d="M14 14h22v2H14zm0 6h22v2H14zm0 6h22v2H14zm0 12h22v2H14zm0-6h22v2H14z"/></svg><svg viewBox="0 0 100.353 100.352" id="money" xmlns="http://www.w3.org/2000/svg"><path d="M41.76 45.383c-7.691 0-13.949 6.258-13.949 13.949S34.068 73.28 41.76 73.28s13.949-6.257 13.949-13.948-6.258-13.949-13.949-13.949zm0 24.898c-6.037 0-10.949-4.911-10.949-10.948s4.912-10.949 10.949-10.949c6.038 0 10.949 4.912 10.949 10.949S47.797 70.281 41.76 70.281zM12.399 45.384a1.5 1.5 0 00-1.5 1.5V71.78a1.5 1.5 0 103 0V46.884a1.5 1.5 0 00-1.5-1.5zm58.249 0a1.5 1.5 0 00-1.5 1.5V71.78a1.5 1.5 0 003 0V46.884a1.5 1.5 0 00-1.5-1.5z"/><path d="M95.287 19.142H21.869a1.5 1.5 0 00-1.5 1.5v7.419h-6.72a1.5 1.5 0 00-1.5 1.5v8.248H4.714a1.5 1.5 0 00-1.5 1.5v40.047a1.5 1.5 0 001.5 1.5h73.419a1.5 1.5 0 001.5-1.5v-8.248h7.436a1.5 1.5 0 001.5-1.5v-7.419h6.719a1.5 1.5 0 001.5-1.5V20.642a1.501 1.501 0 00-1.501-1.5zM6.214 77.856V40.809h70.419v28.789l-.001.01.001.01v8.238H6.214zm79.354-9.748h-5.936V39.309a1.5 1.5 0 00-1.5-1.5H15.149v-6.748h70.419v37.047zm8.219-8.919h-5.219V29.561a1.5 1.5 0 00-1.5-1.5H23.369v-5.919h70.418v37.047z"/></svg><svg viewBox="0 0 64 64" id="ok" xmlns="http://www.w3.org/2000/svg"><defs><linearGradient id="da" x1="10.5" y1="31.98" x2="53.54" y2="31.98" gradientUnits="userSpaceOnUse"><stop offset="0" stop-color="#19dd33"/><stop offset=".43" stop-color="#0fa922"/><stop offset=".8" stop-color="#088215"/><stop offset="1" stop-color="#057310"/></linearGradient></defs><g data-name="Layer 39"><path d="M51.68 23.35a1.5 1.5 0 00-2.74 1.22C54.42 36.38 45.06 50.78 32 50.5A18.52 18.52 0 0113.5 32c-.28-13.06 14.12-22.42 25.93-16.94a1.51 1.51 0 002-.76 1.49 1.49 0 00-.76-2C26.92 5.94 10.18 16.81 10.5 32A21.53 21.53 0 0032 53.5c15.18.32 26.06-16.42 19.68-30.15z"/><path d="M27.74 24.39a1.5 1.5 0 00-2.61 1.47l5.56 9.88a1.51 1.51 0 002.44.24l20-23a1.5 1.5 0 10-2.26-2L32.26 32.41z"/></g></svg><svg viewBox="0 0 50 50" id="solution" xmlns="http://www.w3.org/2000/svg"><path d="M43 24c-.688 0-1.361.119-2 .351V9H26.649A5.844 5.844 0 0027 7c0-3.309-2.691-6-6-6s-6 2.691-6 6c0 .688.119 1.361.351 2H1v19.031l1.603-1.21A3.955 3.955 0 015 26c2.206 0 4 1.794 4 4s-1.794 4-4 4a3.96 3.96 0 01-2.397-.82L1 31.969V49h40V35.649A5.844 5.844 0 0043 36c3.309 0 6-2.691 6-6s-2.691-6-6-6zm0 10a3.96 3.96 0 01-2.397-.82L39 31.969V47H3V35.649A5.844 5.844 0 005 36c3.309 0 6-2.691 6-6s-2.691-6-6-6c-.688 0-1.361.119-2 .351V11h16.031L17.82 9.397A3.96 3.96 0 0117 7c0-2.206 1.794-4 4-4s4 1.794 4 4a3.96 3.96 0 01-.82 2.397L22.969 11H39v17.031l1.603-1.21A3.955 3.955 0 0143 26c2.206 0 4 1.794 4 4s-1.794 4-4 4z"/></svg><svg viewBox="0 0 64 64" id="world" xmlns="http://www.w3.org/2000/svg"><path d="M35 19a8.009 8.009 0 00-8 8c0 4.038 6.421 14.368 7.153 15.532a1 1 0 001.694 0C36.579 41.368 43 31.038 43 27a8.009 8.009 0 00-8-8zm0 21.087c-2.223-3.7-6-10.521-6-13.087a6 6 0 1112 0c0 2.564-3.777 9.388-6 13.087z"/><path d="M35 23a4 4 0 100 8 4 4 0 000-8zm0 6a2 2 0 110-4 2 2 0 010 4zm-21 .286a6.007 6.007 0 00-6 6c0 2.964 4.626 10.407 5.153 11.246a1 1 0 001.694 0C15.374 45.693 20 38.25 20 35.286a6.007 6.007 0 00-6-6zm0 14.793c-1.806-3.044-4-7.247-4-8.793a4 4 0 118 0c0 1.546-2.194 5.749-4 8.793z"/><path d="M54.056 11.689A10.07 10.07 0 0055 8.286a5.993 5.993 0 00-10.743-3.662A29.631 29.631 0 0032 2a30.04 30.04 0 1022.056 9.689zM49 4.286a4 4 0 014 4c0 1.546-2.194 5.749-4 8.793-1.806-3.044-4-7.247-4-8.793a4 4 0 014-4zM21.05 6.232l3.185.635.437 1.313-5.814.83a1 1 0 00-.658 1.59l2.653 3.538-2.6 6.076-5.743 2.153 1.455-5.093a1 1 0 00-1.408-1.169l-4 2a1 1 0 00-.514.621l-2 7a.833.833 0 00-.025.11l-.458 2.722-.986-2.211A28.1 28.1 0 0121.05 6.232zM4 32c0-.63.03-1.254.07-1.874l1.017 2.281a1 1 0 001.9-.243l.99-5.943L9.841 19.7l1.573-.786-1.375 4.815a1 1 0 001.312 1.211l8-3a1 1 0 00.568-.543l3-7a1 1 0 00-.119-.997l-1.987-2.649 5.33-.761a1 1 0 00.806-1.306l-1-3a1 1 0 00-.749-.664l-.39-.078A27.91 27.91 0 0132 4c.243 0 .483.014.724.02l-4.17 2.085a.999.999 0 00-.26 1.6L33 12.414v3.909l-9.372 3.748a1 1 0 00-.608.733l-2 10a1 1 0 00.273.9l6.354 6.355-4.357 5.231-5.93 4.941a1 1 0 00-.208 1.3l5 8c.062.1.142.187.234.259l1.161.9A28.048 28.048 0 014 32zm24.13 27.726l-4.376-3.407-4.443-7.109 5.33-4.441c.045-.04.088-.082.127-.128l5-6a1 1 0 00-.06-1.348l-6.623-6.622 1.79-8.943 9.5-3.8A.999.999 0 0035 17v-5a1 1 0 00-.293-.707l-4.019-4.019 5.824-2.911a27.4 27.4 0 016.8 2.028A5.942 5.942 0 0043 8.286c0 2.964 4.626 10.407 5.153 11.246a1 1 0 001.694 0c.3-.481 1.951-3.134 3.3-5.869a27.763 27.763 0 015.577 9.984l-2.334 8.747-1.839-1.226a1 1 0 00-1.55.832v7.719l-6.758-1.689a1 1 0 00-.408-.016l-6 1a1 1 0 00-.46 1.767l5 4a1 1 0 00.868.189l3.153-.788 1.451 3.627-5.606 6.541a1.001 1.001 0 00-.23.792l.287 2.006a27.83 27.83 0 01-16.168 2.578zm18.043-3.592l-.119-.827 5.7-6.657a1 1 0 00.17-1.021l-2-5a1 1 0 00-1.172-.6l-3.519.88-2.864-2.292 3.585-.6 7.8 1.949a.983.983 0 00.858-.182A1 1 0 0055 41v-7.132l1.445.964a1 1 0 001.521-.574l1.72-6.445a27.987 27.987 0 01-13.513 28.321z"/></svg></svg>