<?xml version="1.0" encoding="utf-8"?><svg viewBox="0 0 502.66 502.66" xmlns="http://www.w3.org/2000/svg" xmlns:xlink="http://www.w3.org/1999/xlink"><style>:root>svg{display:none}:root>svg:target{display:block}</style><svg viewBox="0 0 64 64" id="appliances" xmlns="http://www.w3.org/2000/svg"><g data-name="washing-home appliances"><path d="M24 21a16 16 0 1016 16 16.019 16.019 0 00-16-16zm0 2a14.012 14.012 0 0113.938 12.778 16.124 16.124 0 01-2.434-.72 15.767 15.767 0 00-6.174-1.108 15.741 15.741 0 00-6.168 1.109 13.909 13.909 0 01-5.5.991 13.9 13.9 0 01-5.49-.989c-.6-.214-1.21-.432-1.925-.618A14.016 14.016 0 0124 23zm0 28a14.015 14.015 0 01-14-14c0-.183.02-.361.027-.542.512.146.985.311 1.467.485a15.763 15.763 0 006.166 1.107 15.759 15.759 0 006.179-1.11 13.873 13.873 0 015.491-.99 13.9 13.9 0 015.5.99 16.8 16.8 0 003.131.875A14.006 14.006 0 0124 51zM13 5H7a1 1 0 00-1 1v4a1 1 0 001 1h6a1 1 0 001-1V6a1 1 0 00-1-1zm-1 4H8V7h4zm5-3h2v2h-2zm4 0h2v2h-2zm4 0h2v2h-2zm4 0h2v2h-2z"/><path d="M14 39h2v2h-2zm3 2h2v2h-2z"/><path d="M61 5h-1V2h-2v3h-2V2h-2v3h-1a1 1 0 00-1 1v4a5.009 5.009 0 004 4.9V52a1 1 0 01-2 0V34a3 3 0 00-6 0v18a1 1 0 01-1 1h-1V3a1 1 0 00-1-1H3a1 1 0 00-1 1v55a1 1 0 001 1h4v2a1 1 0 001 1h4a1 1 0 001-1v-2h22v2a1 1 0 001 1h4a1 1 0 001-1v-2h4a1 1 0 001-1v-3h1a3 3 0 003-3V34a1 1 0 012 0v18a3 3 0 006 0V14.9a5.009 5.009 0 004-4.9V6a1 1 0 00-1-1zM4 4h40v8H4zm7 56H9v-1h2zm28 0h-2v-1h2zM4 57V14h40v43zm56-47a3 3 0 01-6 0V7h6z"/><path d="M55 8h4v2h-4zM41 35h2v4h-2z"/></g></svg><svg viewBox="0 0 32 32" id="car" xmlns="http://www.w3.org/2000/svg"><path d="M8.4 22l1.2-2.3c.5-1 1.5-1.7 2.7-1.7H16c1.8-2.4 4.7-4 8-4 1.2 0 2.3.2 3.4.6-.4-.6-.9-1.2-1.4-1.6h1c.6 0 1-.4 1-1s-.4-1-1-1h-2.8L23 8c-.8-1.8-2.6-3-4.6-3H9.6C7.6 5 5.8 6.2 5 8l-1.3 3H1c-.6 0-1 .4-1 1s.4 1 1 1h1c-1.2.9-2 2.4-2 4v4c0 .9.4 1.7 1 2.2V25c0 1.7 1.3 3 3 3h2c1.7 0 3-1.3 3-3v-1h5c0-.7.1-1.4.2-2H8.4zM7 19H4c-.6 0-1-.4-1-1s.4-1 1-1h3c.6 0 1 .4 1 1s-.4 1-1 1zm-1.5-7l1.4-3.2C7.4 7.7 8.4 7 9.6 7h8.7c1.2 0 2.3.7 2.8 1.8l1.4 3.2h-17z"/><path d="M31.7 21.9c-.1-.5-.7-.8-1.2-.7-.7.2-1.2 0-1.3-.2-.1-.2 0-.7.5-1.3.4-.4.4-1 0-1.4-1-1-2.2-1.7-3.6-2.1-.5-.1-1.1.2-1.2.7-.2.7-.6 1-.9 1s-.6-.4-.9-1c-.2-.5-.7-.8-1.2-.7-1.4.4-2.6 1.1-3.6 2.1-.4.4-.4 1 0 1.4.5.5.6 1 .5 1.3-.1.2-.6.4-1.3.2-.5-.1-1.1.2-1.2.7-.2.7-.3 1.4-.3 2.1s.1 1.4.3 2.1c.1.5.7.8 1.2.7.7-.2 1.2 0 1.3.2.1.2 0 .7-.5 1.3-.4.4-.4 1 0 1.4 1 1 2.2 1.7 3.6 2.1.5.1 1.1-.2 1.2-.7.2-.7.6-1 .9-1s.6.4.9 1c.1.4.5.7 1 .7h.3c1.4-.4 2.6-1.1 3.6-2.1.4-.4.4-1 0-1.4-.5-.5-.6-1-.5-1.3.1-.2.6-.4 1.3-.2.5.1 1.1-.2 1.2-.7.2-.7.3-1.4.3-2.1s-.2-1.4-.4-2.1zM24 27c-1.7 0-3-1.3-3-3s1.3-3 3-3 3 1.3 3 3-1.3 3-3 3z"/></svg><svg viewBox="0 0 32 32" id="clothes" xmlns="http://www.w3.org/2000/svg"><path d="M27.764 10.764L22.87 8.316A3.014 3.014 0 0021.528 8h-4.479v-.86a2.668 2.668 0 00.886-4.359 2.731 2.731 0 00-3.772 0A1 1 0 0015.577 4.2a.667.667 0 01.944.943.663.663 0 01-.472.2 1 1 0 00-1 1V8h-4.577a3.022 3.022 0 00-1.342.316l-4.894 2.448a2.005 2.005 0 00-1.067 2.181l.69 3.447A2 2 0 005.82 18H8v10a2 2 0 002 2h12a2 2 0 002-2V18h2.18a2 2 0 001.961-1.607l.69-3.448a2.005 2.005 0 00-1.067-2.181zM18.218 10a2.96 2.96 0 01-4.436 0zm7.962 6H23a1 1 0 00-1 1v11H10V17a1 1 0 00-1-1H5.82l-.69-3.447 4.894-2.448a1.027 1.027 0 01.448-.105h.96a4.978 4.978 0 009.136 0h.96a1.027 1.027 0 01.448.105l4.894 2.448z"/></svg><svg viewBox="0 0 455 455" id="cup" xmlns="http://www.w3.org/2000/svg"><path d="M177.5 0h30v90h-30zm-80 30h30v60h-30zm160 0h30v60h-30zm102.195 148.258C370.422 171.075 377.5 158.85 377.5 145c0-22.056-17.944-40-40-40h-290c-22.056 0-40 17.944-40 40 0 18.604 12.767 34.282 30 38.734V410c0 24.814 20.187 45 45 45h220c24.814 0 45-20.186 45-45v-5.978c56.35-7.374 100-55.694 100-114.022 0-54.044-37.477-99.492-87.805-111.742zM317.5 410c0 8.272-6.728 15-15 15h-220c-8.271 0-15-6.728-15-15V185h250v225zm20-255h-290c-5.514 0-10-4.486-10-10s4.486-10 10-10h290c5.514 0 10 4.486 10 10s-4.486 10-10 10zm10 115.014c6.068 4.565 10 11.824 10 19.986s-3.932 15.421-10 19.986v-39.972zm0 103.633v-30.743c23.057-6.548 40-27.777 40-52.904 0-25.127-16.943-46.356-40-52.904v-30.743c39.736 7.108 70 41.9 70 83.648s-30.264 76.538-70 83.646z"/></svg><svg viewBox="0 0 96 96" id="faq" xmlns="http://www.w3.org/2000/svg"><path d="M82.607 62.107L52.606 26.105a6.203 6.203 0 00-9.212 0L13.393 62.107a5.999 5.999 0 109.211 7.688L48 39.325l25.396 30.47a5.999 5.999 0 109.211-7.688z"/></svg><svg viewBox="0 0 489.9 489.9" id="flask" xmlns="http://www.w3.org/2000/svg"><path d="M469.327 0h-143.9c-11.2 0-20.4 9.2-20.4 20.4s9.2 20.4 20.4 20.4h4.1v373.6c0 41.9 30.6 75.5 67.4 75.5 37.8 0 67.4-33.7 67.4-75.5V40.8h5.1c11.2 0 20.4-9.2 20.4-20.4-.1-11.2-9.3-20.4-20.5-20.4zm-45.9 414.5c0 19.4-12.3 34.7-26.5 34.7s-26.5-16.3-26.5-34.7V40.8h53.1v373.7h-.1zm-211.3-187.9V40.8h6.1c11.2 0 20.4-9.2 20.4-20.4s-9.2-20.4-20.4-20.4h-121.5c-11.2 0-20.4 9.2-20.4 20.4s9.2 20.4 20.4 20.4h8.2v183.8l-100 201.1c-14.3 28.1 4.8 61.3 33.7 61.3h237.9c32.7 0 47.7-33.6 34.7-60.2l-99.1-200.2zm62.4 219.5h-233.9l102.1-206.2c1-3.1 2-6.1 2-9.2V40.8h25.5v189.9c0 3.1 1 6.1 2 9.2l102.3 206.2z"/></svg><svg viewBox="0 0 502.664 502.664" id="icon" xmlns="http://www.w3.org/2000/svg"><path d="M153.821 358.226L0 274.337v-46.463l153.821-83.414v54.574L46.636 250.523l107.185 53.431v54.272zm26.273 29.358L282.103 115.08h32.227L212.084 387.584h-31.99zm168.749-29.358v-54.272l107.164-52.999-107.164-52.59v-53.927l153.821 83.522v46.183l-153.821 84.083z"/></svg><svg viewBox="0 0 50 50" id="letter" xmlns="http://www.w3.org/2000/svg"><path d="M6 1v48h38V8.586L36.414 1H6zm31 3.414L40.586 8H37V4.414zM8 47V3h27v7h7v37H8z"/><path d="M14 14h22v2H14zm0 6h22v2H14zm0 6h22v2H14zm0 12h22v2H14zm0-6h22v2H14z"/></svg><svg viewBox="0 0 64 64" id="materials" xmlns="http://www.w3.org/2000/svg"><path d="M58.17 44.55a9.56 9.56 0 00-9.75-2.34L35.06 28.85l11-12.5c.55.09 1.31.27 1.67-.31l5.79-8.23a1 1 0 00-.09-1.27L51 4a1 1 0 00-1.39-.05l-7.32 6.65c-.53.41-.24 1.24-.17 1.78l-11 12.51-9.28-9.28c2.35-6.79-4-13.91-11-12.4A1 1 0 0010 4.26a1.14 1.14 0 00.28.61l4 4-1.18 4.23-4.27 1.14-4-4a1 1 0 00-1.69.51c-1.55 7 5.7 13.41 12.42 11l9.66 9.66-2.45 2.77c-.31-.33-.69-.84-1.21-.8a1 1 0 00-.73.34l-1.55 1.77-.86-.89a1 1 0 00-1.47 0L4.82 48.5a7.56 7.56 0 00-1.21 7.89c1.65 4.42 7.81 5.71 10.88 2l12.17-13.84c.79-.92-.46-1.75-1-2.37l1.67-1.9c.65-.76-.06-1.43-.61-2l2.53-2.86 13 13c-2.36 6.79 4 13.91 11 12.4a1 1 0 00.75-1.08 1.14 1.14 0 00-.28-.61l-4-4 1.18-4.23 4.27-1.14 4 4a1.29 1.29 0 00.71.3 1 1 0 001-.81 9.59 9.59 0 00-2.71-8.7zM42.53 14.9a1.12 1.12 0 001.19 1.1L33.64 27.43l-1.15-1.15zM5 53.81a5.44 5.44 0 011.3-4l11.45-13 .85.89.31.31zM13 57a4.29 4.29 0 01-3.57 1.52l14-15.85 1.15 1.2zm11.27-16.27L20.7 37l.95-1.08.45.46c.44.49 2.73 2.85 3.12 3.27zm1.06-3.86l-1.13-1.18 2.48-2.8L27.83 34z" data-name="Layer 49"/></svg><svg viewBox="0 0 100.353 100.352" id="money" xmlns="http://www.w3.org/2000/svg"><path d="M41.76 45.383c-7.691 0-13.949 6.258-13.949 13.949S34.068 73.28 41.76 73.28s13.949-6.257 13.949-13.948-6.258-13.949-13.949-13.949zm0 24.898c-6.037 0-10.949-4.911-10.949-10.948s4.912-10.949 10.949-10.949c6.038 0 10.949 4.912 10.949 10.949S47.797 70.281 41.76 70.281zM12.399 45.384a1.5 1.5 0 00-1.5 1.5V71.78a1.5 1.5 0 103 0V46.884a1.5 1.5 0 00-1.5-1.5zm58.249 0a1.5 1.5 0 00-1.5 1.5V71.78a1.5 1.5 0 003 0V46.884a1.5 1.5 0 00-1.5-1.5z"/><path d="M95.287 19.142H21.869a1.5 1.5 0 00-1.5 1.5v7.419h-6.72a1.5 1.5 0 00-1.5 1.5v8.248H4.714a1.5 1.5 0 00-1.5 1.5v40.047a1.5 1.5 0 001.5 1.5h73.419a1.5 1.5 0 001.5-1.5v-8.248h7.436a1.5 1.5 0 001.5-1.5v-7.419h6.719a1.5 1.5 0 001.5-1.5V20.642a1.501 1.501 0 00-1.501-1.5zM6.214 77.856V40.809h70.419v28.789l-.001.01.001.01v8.238H6.214zm79.354-9.748h-5.936V39.309a1.5 1.5 0 00-1.5-1.5H15.149v-6.748h70.419v37.047zm8.219-8.919h-5.219V29.561a1.5 1.5 0 00-1.5-1.5H23.369v-5.919h70.418v37.047z"/></svg><svg viewBox="0 0 64 64" id="ok" xmlns="http://www.w3.org/2000/svg"><defs><linearGradient id="ka" x1="10.5" y1="31.98" x2="53.54" y2="31.98" gradientUnits="userSpaceOnUse"><stop offset="0" stop-color="#19dd33"/><stop offset=".43" stop-color="#0fa922"/><stop offset=".8" stop-color="#088215"/><stop offset="1" stop-color="#057310"/></linearGradient></defs><g data-name="Layer 39"><path d="M51.68 23.35a1.5 1.5 0 00-2.74 1.22C54.42 36.38 45.06 50.78 32 50.5A18.52 18.52 0 0113.5 32c-.28-13.06 14.12-22.42 25.93-16.94a1.51 1.51 0 002-.76 1.49 1.49 0 00-.76-2C26.92 5.94 10.18 16.81 10.5 32A21.53 21.53 0 0032 53.5c15.18.32 26.06-16.42 19.68-30.15z"/><path d="M27.74 24.39a1.5 1.5 0 00-2.61 1.47l5.56 9.88a1.51 1.51 0 002.44.24l20-23a1.5 1.5 0 10-2.26-2L32.26 32.41z"/></g></svg><svg viewBox="0 0 50 50" id="solution" xmlns="http://www.w3.org/2000/svg"><path d="M43 24c-.688 0-1.361.119-2 .351V9H26.649A5.844 5.844 0 0027 7c0-3.309-2.691-6-6-6s-6 2.691-6 6c0 .688.119 1.361.351 2H1v19.031l1.603-1.21A3.955 3.955 0 015 26c2.206 0 4 1.794 4 4s-1.794 4-4 4a3.96 3.96 0 01-2.397-.82L1 31.969V49h40V35.649A5.844 5.844 0 0043 36c3.309 0 6-2.691 6-6s-2.691-6-6-6zm0 10a3.96 3.96 0 01-2.397-.82L39 31.969V47H3V35.649A5.844 5.844 0 005 36c3.309 0 6-2.691 6-6s-2.691-6-6-6c-.688 0-1.361.119-2 .351V11h16.031L17.82 9.397A3.96 3.96 0 0117 7c0-2.206 1.794-4 4-4s4 1.794 4 4a3.96 3.96 0 01-.82 2.397L22.969 11H39v17.031l1.603-1.21A3.955 3.955 0 0143 26c2.206 0 4 1.794 4 4s-1.794 4-4 4z"/></svg><svg viewBox="0 0 64 64" id="world" xmlns="http://www.w3.org/2000/svg"><path d="M35 19a8.009 8.009 0 00-8 8c0 4.038 6.421 14.368 7.153 15.532a1 1 0 001.694 0C36.579 41.368 43 31.038 43 27a8.009 8.009 0 00-8-8zm0 21.087c-2.223-3.7-6-10.521-6-13.087a6 6 0 1112 0c0 2.564-3.777 9.388-6 13.087z"/><path d="M35 23a4 4 0 100 8 4 4 0 000-8zm0 6a2 2 0 110-4 2 2 0 010 4zm-21 .286a6.007 6.007 0 00-6 6c0 2.964 4.626 10.407 5.153 11.246a1 1 0 001.694 0C15.374 45.693 20 38.25 20 35.286a6.007 6.007 0 00-6-6zm0 14.793c-1.806-3.044-4-7.247-4-8.793a4 4 0 118 0c0 1.546-2.194 5.749-4 8.793z"/><path d="M54.056 11.689A10.07 10.07 0 0055 8.286a5.993 5.993 0 00-10.743-3.662A29.631 29.631 0 0032 2a30.04 30.04 0 1022.056 9.689zM49 4.286a4 4 0 014 4c0 1.546-2.194 5.749-4 8.793-1.806-3.044-4-7.247-4-8.793a4 4 0 014-4zM21.05 6.232l3.185.635.437 1.313-5.814.83a1 1 0 00-.658 1.59l2.653 3.538-2.6 6.076-5.743 2.153 1.455-5.093a1 1 0 00-1.408-1.169l-4 2a1 1 0 00-.514.621l-2 7a.833.833 0 00-.025.11l-.458 2.722-.986-2.211A28.1 28.1 0 0121.05 6.232zM4 32c0-.63.03-1.254.07-1.874l1.017 2.281a1 1 0 001.9-.243l.99-5.943L9.841 19.7l1.573-.786-1.375 4.815a1 1 0 001.312 1.211l8-3a1 1 0 00.568-.543l3-7a1 1 0 00-.119-.997l-1.987-2.649 5.33-.761a1 1 0 00.806-1.306l-1-3a1 1 0 00-.749-.664l-.39-.078A27.91 27.91 0 0132 4c.243 0 .483.014.724.02l-4.17 2.085a.999.999 0 00-.26 1.6L33 12.414v3.909l-9.372 3.748a1 1 0 00-.608.733l-2 10a1 1 0 00.273.9l6.354 6.355-4.357 5.231-5.93 4.941a1 1 0 00-.208 1.3l5 8c.062.1.142.187.234.259l1.161.9A28.048 28.048 0 014 32zm24.13 27.726l-4.376-3.407-4.443-7.109 5.33-4.441c.045-.04.088-.082.127-.128l5-6a1 1 0 00-.06-1.348l-6.623-6.622 1.79-8.943 9.5-3.8A.999.999 0 0035 17v-5a1 1 0 00-.293-.707l-4.019-4.019 5.824-2.911a27.4 27.4 0 016.8 2.028A5.942 5.942 0 0043 8.286c0 2.964 4.626 10.407 5.153 11.246a1 1 0 001.694 0c.3-.481 1.951-3.134 3.3-5.869a27.763 27.763 0 015.577 9.984l-2.334 8.747-1.839-1.226a1 1 0 00-1.55.832v7.719l-6.758-1.689a1 1 0 00-.408-.016l-6 1a1 1 0 00-.46 1.767l5 4a1 1 0 00.868.189l3.153-.788 1.451 3.627-5.606 6.541a1.001 1.001 0 00-.23.792l.287 2.006a27.83 27.83 0 01-16.168 2.578zm18.043-3.592l-.119-.827 5.7-6.657a1 1 0 00.17-1.021l-2-5a1 1 0 00-1.172-.6l-3.519.88-2.864-2.292 3.585-.6 7.8 1.949a.983.983 0 00.858-.182A1 1 0 0055 41v-7.132l1.445.964a1 1 0 001.521-.574l1.72-6.445a27.987 27.987 0 01-13.513 28.321z"/></svg></svg>